<svg xmlns="http://www.w3.org/2000/svg" width="900" height="440" viewBox="0 0 900 440">
<rect width="900" height="440" fill="#f2efe6"/><g>
<rect x="30" y="10" width="400" height="300" fill="#bfe3f2"/>
<circle cx="110" cy="70" r="26" fill="#ffe9a8"/>
<ellipse cx="150" cy="136" rx="140" ry="42" fill="#9ecf8e"/>
<ellipse cx="330" cy="130" rx="120" ry="36" fill="#8fc47f"/>
<rect x="30" y="145" width="400" height="165" fill="#a9d193"/>
<polygon points="150,310 206,145 270,145 342,310" fill="#dcc9a0"/>
<polygon points="150,310 206,145 220,145 174,310" fill="#cbb58c"/>
<rect x="83" y="187" width="14" height="60" fill="#8a5a33" rx="3"/><circle cx="90" cy="169" r="34" fill="#4f9d4f"/><circle cx="65" cy="185" r="23" fill="#5cae5c"/><circle cx="115" cy="182" r="25" fill="#459345"/>
</g><rect x="30" y="240" width="400" height="140" rx="12" fill="#14161d" opacity="0.94"/><rect x="44" y="228" width="120" height="26" rx="7" fill="#3a4356"/><text x="104" y="246" font-family="sans-serif" font-size="13" fill="#ffffff" text-anchor="middle">Собеседник</text><rect x="180" y="272" width="220" height="12" rx="6" fill="#8f97a8"/><rect x="180" y="298" width="160" height="12" rx="6" fill="#8f97a8"/><rect x="180" y="324" width="100" height="12" rx="6" fill="#8f97a8"/><rect x="44" y="252" width="110" height="110" rx="8" fill="#232a38"/><rect x="58.4" y="260.0" width="6.8" height="6.8" fill="#7a4419"/>
<rect x="64.8" y="260.0" width="6.8" height="6.8" fill="#7a4419"/>
<rect x="135.2" y="260.0" width="6.8" height="6.8" fill="#7a4419"/>
<rect x="141.6" y="260.0" width="6.8" height="6.8" fill="#7a4419"/>
<rect x="58.4" y="266.4" width="6.8" height="6.8" fill="#7a4419"/>
<rect x="64.8" y="266.4" width="6.8" height="6.8" fill="#e8894a"/>
<rect x="71.2" y="266.4" width="6.8" height="6.8" fill="#e8894a"/>
<rect x="77.6" y="266.4" width="6.8" height="6.8" fill="#7a4419"/>
<rect x="135.2" y="266.4" width="6.8" height="6.8" fill="#7a4419"/>
<rect x="141.6" y="266.4" width="6.8" height="6.8" fill="#e8894a"/>
<rect x="148.0" y="266.4" width="6.8" height="6.8" fill="#e8894a"/>
<rect x="58.4" y="272.8" width="6.8" height="6.8" fill="#7a4419"/>
<rect x="64.8" y="272.8" width="6.8" height="6.8" fill="#e8894a"/>
<rect x="71.2" y="272.8" width="6.8" height="6.8" fill="#e8894a"/>
<rect x="77.6" y="272.8" width="6.8" height="6.8" fill="#e8894a"/>
<rect x="84.0" y="272.8" width="6.8" height="6.8" fill="#7a4419"/>
<rect x="90.4" y="272.8" width="6.8" height="6.8" fill="#7a4419"/>
<rect x="96.8" y="272.8" width="6.8" height="6.8" fill="#7a4419"/>
<rect x="103.2" y="272.8" width="6.8" height="6.8" fill="#7a4419"/>
<rect x="109.6" y="272.8" width="6.8" height="6.8" fill="#7a4419"/>
<rect x="116.0" y="272.8" width="6.8" height="6.8" fill="#7a4419"/>
<rect x="122.4" y="272.8" width="6.8" height="6.8" fill="#7a4419"/>
<rect x="128.8" y="272.8" width="6.8" height="6.8" fill="#e8894a"/>
<rect x="135.2" y="272.8" width="6.8" height="6.8" fill="#e8894a"/>
<rect x="141.6" y="272.8" width="6.8" height="6.8" fill="#7a4419"/>
<rect x="58.4" y="279.2" width="6.8" height="6.8" fill="#7a4419"/>
<rect x="64.8" y="279.2" width="6.8" height="6.8" fill="#e8894a"/>
<rect x="71.2" y="279.2" width="6.8" height="6.8" fill="#e8894a"/>
<rect x="77.6" y="279.2" width="6.8" height="6.8" fill="#e8894a"/>
<rect x="84.0" y="279.2" width="6.8" height="6.8" fill="#e8894a"/>
<rect x="90.4" y="279.2" width="6.8" height="6.8" fill="#e8894a"/>
<rect x="96.8" y="279.2" width="6.8" height="6.8" fill="#e8894a"/>
<rect x="103.2" y="279.2" width="6.8" height="6.8" fill="#e8894a"/>
<rect x="109.6" y="279.2" width="6.8" height="6.8" fill="#e8894a"/>
<rect x="116.0" y="279.2" width="6.8" height="6.8" fill="#e8894a"/>
<rect x="122.4" y="279.2" width="6.8" height="6.8" fill="#e8894a"/>
<rect x="128.8" y="279.2" width="6.8" height="6.8" fill="#e8894a"/>
<rect x="135.2" y="279.2" width="6.8" height="6.8" fill="#e8894a"/>
<rect x="141.6" y="279.2" width="6.8" height="6.8" fill="#7a4419"/>
<rect x="58.4" y="285.6" width="6.8" height="6.8" fill="#7a4419"/>
<rect x="64.8" y="285.6" width="6.8" height="6.8" fill="#e8894a"/>
<rect x="71.2" y="285.6" width="6.8" height="6.8" fill="#e8894a"/>
<rect x="77.6" y="285.6" width="6.8" height="6.8" fill="#20242c"/>
<rect x="84.0" y="285.6" width="6.8" height="6.8" fill="#e8894a"/>
<rect x="90.4" y="285.6" width="6.8" height="6.8" fill="#e8894a"/>
<rect x="96.8" y="285.6" width="6.8" height="6.8" fill="#e8894a"/>
<rect x="103.2" y="285.6" width="6.8" height="6.8" fill="#e8894a"/>
<rect x="109.6" y="285.6" width="6.8" height="6.8" fill="#e8894a"/>
<rect x="116.0" y="285.6" width="6.8" height="6.8" fill="#e8894a"/>
<rect x="122.4" y="285.6" width="6.8" height="6.8" fill="#20242c"/>
<rect x="128.8" y="285.6" width="6.8" height="6.8" fill="#e8894a"/>
<rect x="135.2" y="285.6" width="6.8" height="6.8" fill="#e8894a"/>
<rect x="141.6" y="285.6" width="6.8" height="6.8" fill="#7a4419"/>
<rect x="58.4" y="292.0" width="6.8" height="6.8" fill="#7a4419"/>
<rect x="64.8" y="292.0" width="6.8" height="6.8" fill="#e8894a"/>
<rect x="71.2" y="292.0" width="6.8" height="6.8" fill="#e8894a"/>
<rect x="77.6" y="292.0" width="6.8" height="6.8" fill="#20242c"/>
<rect x="84.0" y="292.0" width="6.8" height="6.8" fill="#e8894a"/>
<rect x="90.4" y="292.0" width="6.8" height="6.8" fill="#e8894a"/>
<rect x="96.8" y="292.0" width="6.8" height="6.8" fill="#e8894a"/>
<rect x="103.2" y="292.0" width="6.8" height="6.8" fill="#e8894a"/>
<rect x="109.6" y="292.0" width="6.8" height="6.8" fill="#e8894a"/>
<rect x="116.0" y="292.0" width="6.8" height="6.8" fill="#e8894a"/>
<rect x="122.4" y="292.0" width="6.8" height="6.8" fill="#20242c"/>
<rect x="128.8" y="292.0" width="6.8" height="6.8" fill="#e8894a"/>
<rect x="135.2" y="292.0" width="6.8" height="6.8" fill="#e8894a"/>
<rect x="141.6" y="292.0" width="6.8" height="6.8" fill="#7a4419"/>
<rect x="58.4" y="298.4" width="6.8" height="6.8" fill="#7a4419"/>
<rect x="64.8" y="298.4" width="6.8" height="6.8" fill="#e8894a"/>
<rect x="71.2" y="298.4" width="6.8" height="6.8" fill="#e8894a"/>
<rect x="77.6" y="298.4" width="6.8" height="6.8" fill="#e8894a"/>
<rect x="84.0" y="298.4" width="6.8" height="6.8" fill="#e8894a"/>
<rect x="90.4" y="298.4" width="6.8" height="6.8" fill="#e8894a"/>
<rect x="96.8" y="298.4" width="6.8" height="6.8" fill="#f6f1e7"/>
<rect x="103.2" y="298.4" width="6.8" height="6.8" fill="#f6f1e7"/>
<rect x="109.6" y="298.4" width="6.8" height="6.8" fill="#e8894a"/>
<rect x="116.0" y="298.4" width="6.8" height="6.8" fill="#e8894a"/>
<rect x="122.4" y="298.4" width="6.8" height="6.8" fill="#e8894a"/>
<rect x="128.8" y="298.4" width="6.8" height="6.8" fill="#e8894a"/>
<rect x="135.2" y="298.4" width="6.8" height="6.8" fill="#e8894a"/>
<rect x="141.6" y="298.4" width="6.8" height="6.8" fill="#7a4419"/>
<rect x="58.4" y="304.8" width="6.8" height="6.8" fill="#7a4419"/>
<rect x="64.8" y="304.8" width="6.8" height="6.8" fill="#e8894a"/>
<rect x="71.2" y="304.8" width="6.8" height="6.8" fill="#e8894a"/>
<rect x="77.6" y="304.8" width="6.8" height="6.8" fill="#e8894a"/>
<rect x="84.0" y="304.8" width="6.8" height="6.8" fill="#e8894a"/>
<rect x="90.4" y="304.8" width="6.8" height="6.8" fill="#f6f1e7"/>
<rect x="96.8" y="304.8" width="6.8" height="6.8" fill="#f6f1e7"/>
<rect x="103.2" y="304.8" width="6.8" height="6.8" fill="#f6f1e7"/>
<rect x="109.6" y="304.8" width="6.8" height="6.8" fill="#f6f1e7"/>
<rect x="116.0" y="304.8" width="6.8" height="6.8" fill="#e2556b"/>
<rect x="122.4" y="304.8" width="6.8" height="6.8" fill="#e8894a"/>
<rect x="128.8" y="304.8" width="6.8" height="6.8" fill="#e8894a"/>
<rect x="135.2" y="304.8" width="6.8" height="6.8" fill="#e8894a"/>
<rect x="141.6" y="304.8" width="6.8" height="6.8" fill="#7a4419"/>
<rect x="58.4" y="311.2" width="6.8" height="6.8" fill="#7a4419"/>
<rect x="64.8" y="311.2" width="6.8" height="6.8" fill="#e8894a"/>
<rect x="71.2" y="311.2" width="6.8" height="6.8" fill="#e8894a"/>
<rect x="77.6" y="311.2" width="6.8" height="6.8" fill="#e8894a"/>
<rect x="84.0" y="311.2" width="6.8" height="6.8" fill="#f6f1e7"/>
<rect x="90.4" y="311.2" width="6.8" height="6.8" fill="#f6f1e7"/>
<rect x="96.8" y="311.2" width="6.8" height="6.8" fill="#e2556b"/>
<rect x="103.2" y="311.2" width="6.8" height="6.8" fill="#e2556b"/>
<rect x="109.6" y="311.2" width="6.8" height="6.8" fill="#f6f1e7"/>
<rect x="116.0" y="311.2" width="6.8" height="6.8" fill="#f6f1e7"/>
<rect x="122.4" y="311.2" width="6.8" height="6.8" fill="#f6f1e7"/>
<rect x="128.8" y="311.2" width="6.8" height="6.8" fill="#e8894a"/>
<rect x="135.2" y="311.2" width="6.8" height="6.8" fill="#e8894a"/>
<rect x="141.6" y="311.2" width="6.8" height="6.8" fill="#7a4419"/>
<rect x="58.4" y="317.6" width="6.8" height="6.8" fill="#7a4419"/>
<rect x="64.8" y="317.6" width="6.8" height="6.8" fill="#e8894a"/>
<rect x="71.2" y="317.6" width="6.8" height="6.8" fill="#e8894a"/>
<rect x="77.6" y="317.6" width="6.8" height="6.8" fill="#f6f1e7"/>
<rect x="84.0" y="317.6" width="6.8" height="6.8" fill="#f6f1e7"/>
<rect x="90.4" y="317.6" width="6.8" height="6.8" fill="#f6f1e7"/>
<rect x="96.8" y="317.6" width="6.8" height="6.8" fill="#f6f1e7"/>
<rect x="103.2" y="317.6" width="6.8" height="6.8" fill="#f6f1e7"/>
<rect x="109.6" y="317.6" width="6.8" height="6.8" fill="#f6f1e7"/>
<rect x="116.0" y="317.6" width="6.8" height="6.8" fill="#f6f1e7"/>
<rect x="122.4" y="317.6" width="6.8" height="6.8" fill="#f6f1e7"/>
<rect x="128.8" y="317.6" width="6.8" height="6.8" fill="#e8894a"/>
<rect x="135.2" y="317.6" width="6.8" height="6.8" fill="#e8894a"/>
<rect x="141.6" y="317.6" width="6.8" height="6.8" fill="#7a4419"/>
<rect x="58.4" y="324.0" width="6.8" height="6.8" fill="#7a4419"/>
<rect x="64.8" y="324.0" width="6.8" height="6.8" fill="#e8894a"/>
<rect x="71.2" y="324.0" width="6.8" height="6.8" fill="#e8894a"/>
<rect x="77.6" y="324.0" width="6.8" height="6.8" fill="#f6f1e7"/>
<rect x="84.0" y="324.0" width="6.8" height="6.8" fill="#f6f1e7"/>
<rect x="90.4" y="324.0" width="6.8" height="6.8" fill="#f6f1e7"/>
<rect x="96.8" y="324.0" width="6.8" height="6.8" fill="#f6f1e7"/>
<rect x="103.2" y="324.0" width="6.8" height="6.8" fill="#f6f1e7"/>
<rect x="109.6" y="324.0" width="6.8" height="6.8" fill="#f6f1e7"/>
<rect x="116.0" y="324.0" width="6.8" height="6.8" fill="#f6f1e7"/>
<rect x="122.4" y="324.0" width="6.8" height="6.8" fill="#f6f1e7"/>
<rect x="128.8" y="324.0" width="6.8" height="6.8" fill="#e8894a"/>
<rect x="135.2" y="324.0" width="6.8" height="6.8" fill="#e8894a"/>
<rect x="141.6" y="324.0" width="6.8" height="6.8" fill="#7a4419"/>
<rect x="64.8" y="330.4" width="6.8" height="6.8" fill="#7a4419"/>
<rect x="71.2" y="330.4" width="6.8" height="6.8" fill="#e8894a"/>
<rect x="77.6" y="330.4" width="6.8" height="6.8" fill="#e8894a"/>
<rect x="84.0" y="330.4" width="6.8" height="6.8" fill="#f6f1e7"/>
<rect x="90.4" y="330.4" width="6.8" height="6.8" fill="#f6f1e7"/>
<rect x="96.8" y="330.4" width="6.8" height="6.8" fill="#f6f1e7"/>
<rect x="103.2" y="330.4" width="6.8" height="6.8" fill="#f6f1e7"/>
<rect x="109.6" y="330.4" width="6.8" height="6.8" fill="#f6f1e7"/>
<rect x="116.0" y="330.4" width="6.8" height="6.8" fill="#f6f1e7"/>
<rect x="122.4" y="330.4" width="6.8" height="6.8" fill="#e8894a"/>
<rect x="128.8" y="330.4" width="6.8" height="6.8" fill="#e8894a"/>
<rect x="135.2" y="330.4" width="6.8" height="6.8" fill="#e8894a"/>
<rect x="141.6" y="330.4" width="6.8" height="6.8" fill="#7a4419"/>
<rect x="64.8" y="336.8" width="6.8" height="6.8" fill="#7a4419"/>
<rect x="71.2" y="336.8" width="6.8" height="6.8" fill="#e8894a"/>
<rect x="77.6" y="336.8" width="6.8" height="6.8" fill="#e8894a"/>
<rect x="84.0" y="336.8" width="6.8" height="6.8" fill="#e8894a"/>
<rect x="90.4" y="336.8" width="6.8" height="6.8" fill="#e8894a"/>
<rect x="96.8" y="336.8" width="6.8" height="6.8" fill="#e8894a"/>
<rect x="103.2" y="336.8" width="6.8" height="6.8" fill="#e8894a"/>
<rect x="109.6" y="336.8" width="6.8" height="6.8" fill="#e8894a"/>
<rect x="116.0" y="336.8" width="6.8" height="6.8" fill="#e8894a"/>
<rect x="122.4" y="336.8" width="6.8" height="6.8" fill="#e8894a"/>
<rect x="128.8" y="336.8" width="6.8" height="6.8" fill="#7a4419"/>
<rect x="71.2" y="343.2" width="6.8" height="6.8" fill="#7a4419"/>
<rect x="77.6" y="343.2" width="6.8" height="6.8" fill="#e8894a"/>
<rect x="84.0" y="343.2" width="6.8" height="6.8" fill="#e8894a"/>
<rect x="90.4" y="343.2" width="6.8" height="6.8" fill="#7a4419"/>
<rect x="96.8" y="343.2" width="6.8" height="6.8" fill="#7a4419"/>
<rect x="103.2" y="343.2" width="6.8" height="6.8" fill="#e8894a"/>
<rect x="109.6" y="343.2" width="6.8" height="6.8" fill="#e8894a"/>
<rect x="116.0" y="343.2" width="6.8" height="6.8" fill="#7a4419"/>
<rect x="77.6" y="349.6" width="6.8" height="6.8" fill="#7a4419"/>
<rect x="84.0" y="349.6" width="6.8" height="6.8" fill="#7a4419"/>
<rect x="90.4" y="349.6" width="6.8" height="6.8" fill="#7a4419"/>
<rect x="96.8" y="349.6" width="6.8" height="6.8" fill="#7a4419"/>
<rect x="103.2" y="349.6" width="6.8" height="6.8" fill="#7a4419"/>
<rect x="109.6" y="349.6" width="6.8" height="6.8" fill="#7a4419"/>
<rect x="116.0" y="349.6" width="6.8" height="6.8" fill="#7a4419"/><rect x="115.7" y="25.0" width="217" height="24" fill="#ffffff" opacity="0.88" rx="5"/><text x="230" y="40" font-family="sans-serif" font-size="15" fill="#1c1c1c" text-anchor="middle" font-weight="bold">P — пиксельный портрет</text><g>
<rect x="470" y="10" width="400" height="300" fill="#bfe3f2"/>
<circle cx="550" cy="70" r="26" fill="#ffe9a8"/>
<ellipse cx="590" cy="136" rx="140" ry="42" fill="#9ecf8e"/>
<ellipse cx="770" cy="130" rx="120" ry="36" fill="#8fc47f"/>
<rect x="470" y="145" width="400" height="165" fill="#a9d193"/>
<polygon points="590,310 646,145 710,145 782,310" fill="#dcc9a0"/>
<polygon points="590,310 646,145 660,145 614,310" fill="#cbb58c"/>
<rect x="523" y="187" width="14" height="60" fill="#8a5a33" rx="3"/><circle cx="530" cy="169" r="34" fill="#4f9d4f"/><circle cx="505" cy="185" r="23" fill="#5cae5c"/><circle cx="555" cy="182" r="25" fill="#459345"/>
</g><rect x="470" y="240" width="400" height="140" rx="12" fill="#14161d" opacity="0.94"/><rect x="484" y="228" width="120" height="26" rx="7" fill="#3a4356"/><text x="544" y="246" font-family="sans-serif" font-size="13" fill="#ffffff" text-anchor="middle">Собеседник</text><rect x="620" y="272" width="220" height="12" rx="6" fill="#8f97a8"/><rect x="620" y="298" width="160" height="12" rx="6" fill="#8f97a8"/><rect x="620" y="324" width="100" height="12" rx="6" fill="#8f97a8"/><rect x="484" y="252" width="110" height="110" rx="8" fill="#232a38"/><path d="M501 308 L509 264 L531 286 Z" fill="#e8894a"/><path d="M577 308 L569 264 L547 286 Z" fill="#e8894a"/><ellipse cx="539" cy="322" rx="42" ry="38" fill="#e8894a"/><ellipse cx="539" cy="332" rx="22" ry="16" fill="#f6f1e7"/><ellipse cx="523" cy="318" rx="5" ry="7" fill="#20242c"/><ellipse cx="555" cy="318" rx="5" ry="7" fill="#20242c"/><path d="M532 330 L539 336 L546 330" stroke="#20242c" stroke-width="2.5" fill="none"/><ellipse cx="509" cy="330" rx="7" ry="4" fill="#e2556b" opacity="0.5"/><ellipse cx="569" cy="330" rx="7" ry="4" fill="#e2556b" opacity="0.5"/><rect x="509.2" y="25.0" width="310" height="24" fill="#ffffff" opacity="0.88" rx="5"/><text x="670" y="40" font-family="sans-serif" font-size="15" fill="#1c1c1c" text-anchor="middle" font-weight="bold">Q — гладкий (рисованный) портрет</text><rect x="24.0" y="373.0" width="778" height="22" fill="#ffffff" opacity="0.88" rx="5"/><text x="30" y="386" font-family="sans-serif" font-size="13" fill="#1c1c1c" text-anchor="start">Окно диалога одинаковое; портрет — слева в углу (решение автора). Шрифт — чёткий, непиксельный.</text><rect x="242.7" y="413.0" width="403" height="24" fill="#ffffff" opacity="0.88" rx="5"/><text x="450.0" y="428" font-family="sans-serif" font-size="15" fill="#1c1c1c" text-anchor="middle" font-weight="bold">СХЕМА · выбор P или Q — вопрос 3 опросника</text>
</svg>
